# xmcd CD database file
#
# Track frame offsets:
#	150
#	25003
#	50291
#	77516
#	88050
#	119028
#	146587
#	166169
#	182724
#
# Disc length: 2718 seconds
#
# Revision: 1
# Processed by: cddbd v1.5.2PL0 Copyright (c) Steve Scherf et al.
# Submitted via: CDex 1.51
#
DISCID=6d0a9c09
DTITLE=Inga Juuso - Váimmu Ivnnit - Patterns of the Heart
DYEAR=2008
DGENRE=Country
TTITLE0=Nils Juhán
TTITLE1=Bárbmoloddi - Bird of passage
TTITLE2=Jovnna Lásse Biret Ánne
TTITLE3=Máhte Randi
TTITLE4=Váimmu ivnnit - Patterns of the Heart
TTITLE5=Inguna gánda
TTITLE6=Silkeárpput - Silken Threads
TTITLE7=Bikko Áillu Ásllat Niillas
TTITLE8=Eahketroaddi - Twilight
EXTD=YEAR: 2008
EXTT0=
EXTT1=
EXTT2=
EXTT3=
EXTT4=
EXTT5=
EXTT6=
EXTT7=
EXTT8=
PLAYORDER=
